<svg width="1512" height="982" viewBox="0 0 1512 982" fill="none" xmlns="http://www.w3.org/2000/svg">
<g clip-path="url(#clip0_316_5798)">
<path d="M1754 0H-241V2874H1754V0Z" fill="url(#paint0_linear_316_5798)"/>
<g opacity="0.1">
<path d="M976.004 -930.645C972.098 -791.06 963.95 -652.945 951.67 -518.159C928.493 -265.468 891.249 -27.438 841.637 185.071C778.833 497.35 742.794 587.371 720.013 797.274C710.683 883.308 705.449 973.139 704.478 1063.9C722.741 894.736 746.998 732.44 776.799 580.025C829.428 311.219 872.366 212.878 908.004 54.7745C948.04 -122.823 988.858 -420.121 976.004 -930.692" fill="#112599"/>
<path d="M276.388 1739.2C275.05 1739.01 239.3 1187.62 330.214 806.661C347.105 735.885 369.296 667.104 395.812 520.751C418.238 396.657 435.391 264.001 446.842 126.12C437.578 479.468 403.409 712.457 372.282 863.261C348.656 977.717 329.462 1031.87 308.614 1177.04C265.228 1479.16 277.31 1739.31 276.39 1739.18" fill="#112599"/>
<path d="M2043.24 230.021C1927.59 672.221 1885.95 913.16 1870.55 1053.27C1858.85 1161.98 1844.51 1267.75 1827.66 1369.68C1814.98 1446.98 1800.87 1521.93 1785.39 1594.12C1755.32 1733.63 1729.21 1818.46 1716.24 1865.84C1661.08 2067.23 1668.81 2229 1640.4 2498.25C1627.46 2620.96 1593.58 2800.22 1520.59 3146.32C1342.96 3988.55 1330.03 4016.82 1303.68 4210.99C1243.15 4656.87 1245.46 5001.75 1249.97 5003.08C1255.59 5004.73 1237.33 4461.72 1385.01 3954.55C1406.56 3880.52 1406.78 3892.66 1437.39 3794.18C1600.88 3268.12 1623.13 2829.61 1650.73 2842.86C1672.65 2853.38 1676.91 3138.8 1655.62 3404.23C1635.9 3650.19 1597.12 3843.18 1542 4062.59C1404.02 4611.92 1260.08 4943.15 1263.06 4950.26C1265.66 4956.46 1375.39 4703.98 1508.19 4313.89C1610.56 4013.2 1659.42 3860.54 1683.78 3717.26C1723.25 3485.14 1723.1 3219.28 1712.7 2688.58C1710.99 2601.56 1706.24 2423.45 1723.82 2193.08C1736.32 2029.52 1755.03 1905.62 1766.41 1831.35C1803.78 1587.33 1827.9 1544.32 1873.83 1293.01C1905.84 1117.86 1901.59 1097.93 1944.06 816.391C1965.48 674.443 1997.87 472.021 2043.22 230.048" fill="#112599"/>
<path d="M-318.76 2643.98C-203.108 2201.78 -161.463 1960.84 -146.069 1820.73C-134.364 1712.02 -120.025 1606.25 -103.175 1504.32C-90.4965 1427.02 -76.3848 1352.07 -60.9114 1279.88C-30.8356 1140.37 -4.73041 1055.54 8.24573 1008.16C63.3991 806.768 55.6711 645.005 84.0816 375.742C97.0254 253.033 130.906 73.7773 203.898 -272.325C381.526 -1114.56 394.451 -1142.84 420.806 -1337C481.321 -1782.87 479.012 -2127.75 474.5 -2129.1C468.875 -2130.75 487.138 -1587.75 339.461 -1080.58C317.904 -1006.54 317.684 -1018.69 287.076 -920.204C123.589 -394.141 101.334 44.3657 73.7338 31.1172C51.8104 20.6016 47.5575 -264.824 68.8411 -530.253C88.5649 -776.208 127.347 -969.196 182.459 -1188.6C320.459 -1737.89 464.396 -2069.11 461.412 -2076.22C458.808 -2082.43 349.085 -1829.95 216.282 -1439.86C113.914 -1139.17 65.0536 -986.514 40.6957 -843.23C1.22443 -611.114 1.37524 -345.249 11.7747 185.447C13.481 272.466 18.2379 450.573 0.653503 680.943C-11.8422 844.5 -30.5598 968.404 -41.9352 1042.67C-79.3102 1286.69 -103.427 1329.7 -149.357 1581.01C-181.368 1756.15 -177.119 1776.09 -219.591 2057.63C-241.017 2199.58 -273.403 2402.01 -318.76 2643.98Z" fill="#112599"/>
<path d="M39.2549 1431.49C39.2549 1431.49 76.3261 1099.65 134.987 843.062C173.812 673.241 195.664 644.495 231.49 464.299C283.039 205.014 375.945 -535.558 375.945 -535.558C375.945 -535.558 356.393 -348.405 287.742 333.062C276.259 436.764 262.266 537.599 245.884 634.698C245.884 634.698 198.689 914.449 141.928 1076.66C138.462 1086.57 119.833 1139.2 97.7153 1213.74C55.9065 1354.65 39.2549 1431.51 39.2549 1431.51" fill="#112599"/>
<path d="M1355.54 860.401C1355.54 860.401 1374.05 520.248 1414.71 247.95C1441.63 67.7274 1459.61 32.4939 1483.44 -157.069C1517.74 -429.844 1567.98 -1192.09 1567.98 -1192.09C1567.98 -1192.09 1558.73 -1000.67 1527.3 -304.435C1521.66 -198.914 1513.64 -94.7643 1503.3 7.23914C1503.3 7.23914 1473.7 298.93 1430.7 477.165C1428.07 488.043 1413.94 545.933 1397.66 626.613C1366.91 779.123 1355.53 860.394 1355.53 860.394" fill="#112599"/>
<path d="M964.435 -1344.22C915.55 -988.934 858.476 -645.146 793.662 -315.549C720.724 54.8074 686.109 161.985 653.194 459.357C623.893 724.073 630.37 828.383 587.087 1103.99C545.985 1365.73 525.18 1366.94 493.439 1597.75C455.891 1870.77 470.793 1972.41 446.614 2256.1C420.52 2562.25 395.968 2528.33 333.683 2969.31C264.067 3462.19 227.194 3723.27 245.544 4052.85C252.843 4183.96 266.414 4281.58 253.808 4436.89C231.018 4717.66 147.616 4879.94 151.904 4889.48C156.471 4899.69 264.054 4742.98 306.161 4443.72C340.569 4199.12 299.075 4087.83 319.934 3744.22C327.196 3624.57 335.644 3581.78 386.038 3243.6C493.686 2521.23 525.929 2241.46 537.531 2249.21C546.746 2255.38 537.16 2439.17 523.758 2578.39C505.876 2764.1 490.162 2777.55 479.687 2921.28C466.258 3105.52 489.179 3123.31 479.687 3332.75C473.286 3473.95 457.869 3576.14 435.616 3723.64C398.344 3970.7 362.331 4100.85 366.756 4107.68C372.179 4116.06 439.313 3940.68 479.687 3682.5C512.529 3472.48 519.785 3258.03 523.758 3140.73C528.34 3005.34 526.016 2936.34 537.531 2790.98C549.066 2645.36 559.969 2606.42 570.582 2502.95C597.698 2238.64 560.887 2158.01 570.582 1885.75C578.196 1671.95 601.358 1708.71 639.442 1343.98C664.968 1099.56 656.001 1069.24 686.266 706.205C705.68 473.33 715.782 352.146 735.846 205.585C783.379 -141.659 832.513 -234.654 884.583 -507.624C918.716 -686.557 957.36 -959.862 964.461 -1344.31" fill="#112599"/>
<path d="M752.174 4409.4C801.059 4054.12 858.132 3710.33 922.945 3380.73C995.885 3010.37 1030.5 2903.2 1063.41 2605.83C1092.71 2341.11 1086.24 2236.8 1129.52 1961.19C1170.62 1699.45 1191.43 1698.25 1223.17 1467.43C1260.72 1194.4 1245.81 1092.77 1269.99 809.085C1296.09 502.937 1320.64 536.861 1382.92 95.8698C1452.54 -397.008 1489.41 -658.092 1471.06 -987.662C1463.76 -1118.76 1450.19 -1216.39 1462.8 -1371.7C1485.59 -1652.47 1568.99 -1814.75 1564.7 -1824.29C1560.14 -1834.5 1452.55 -1677.79 1410.45 -1378.53C1376.04 -1133.93 1417.53 -1022.64 1396.68 -679.036C1389.41 -559.382 1380.97 -516.588 1330.57 -178.416C1222.92 543.952 1190.68 823.73 1179.08 815.968C1169.86 809.804 1179.45 626.022 1192.85 486.794C1210.73 301.078 1226.45 287.635 1236.92 143.902C1250.35 -40.35 1227.43 -58.1244 1236.92 -267.564C1243.32 -408.773 1258.74 -510.961 1280.99 -658.461C1318.26 -905.518 1354.27 -1035.67 1349.85 -1042.5C1344.43 -1050.88 1277.3 -875.502 1236.92 -617.312C1204.08 -407.295 1196.82 -192.847 1192.85 -75.5497C1188.27 59.8506 1190.6 128.847 1179.08 274.199C1167.55 419.819 1156.64 458.759 1146.03 562.23C1118.91 826.544 1155.72 907.177 1146.03 1179.43C1138.41 1393.24 1115.25 1356.47 1077.17 1721.2C1051.64 1965.62 1060.61 1995.94 1030.35 2358.98C1010.93 2591.84 1000.83 2713.03 980.765 2859.6C933.234 3206.84 884.1 3299.84 832.028 3572.81C797.895 3751.74 759.251 4025.04 752.15 4409.49" fill="#112599"/>
<path d="M1360.67 1797.75C1367.03 1800.63 1374.72 1434.7 1454.32 940.529C1522.44 517.689 1566.29 478.42 1636.11 21.5816C1672.74 -218.062 1702.16 -410.552 1715.99 -684.771C1738.24 -1126.01 1694.88 -1278.77 1746.29 -1576.29C1796.08 -1864.49 1884.06 -1994.03 1875.74 -2015.19C1869.85 -2030.19 1768.61 -1892.09 1702.22 -1631.16C1689.68 -1581.86 1679.92 -1529.62 1669.01 -1459.86C1624.99 -1178.38 1624.26 -956.115 1615.46 -749.919C1601.81 -430.328 1570.8 -196.782 1519.05 193.028C1481.32 477.211 1475.99 450.452 1444.68 686.785C1366.46 1277.29 1353.11 1794.32 1360.67 1797.75" fill="#112599"/>
<path d="M683.758 -1590.71C679.684 -1591.32 686.642 -1442.16 652.771 -1282.11C633.732 -1192.13 621.687 -1192.74 605.735 -1099C587.873 -994.021 599.64 -973.614 582.534 -868.069C565.245 -761.402 551.135 -769.359 532.168 -653.425C521.008 -585.241 517.205 -529.434 511.953 -452.306C504.322 -340.293 503.335 -247.681 506.444 -246.573C510.863 -245.002 517.99 -329.925 542.251 -462.593C559.887 -559.04 574.959 -641.472 584.781 -636.403C599.177 -628.976 602.825 -433.208 587.377 -268.47C582.853 -220.23 577.368 -179.88 572.492 -100.643C566.714 -6.78162 569.116 38.7725 553.139 195.802C532.952 394.188 521.18 395.39 479.242 723.819C474.231 763.068 436.22 1061.85 441.714 1066.71C447.208 1071.57 493.606 779.076 499.901 739.25C558.196 370.444 587.875 184.245 611.455 -88.8319C634.678 -357.766 651.021 -547.04 645.54 -757.473C644.045 -814.886 640.256 -899.589 648.638 -1014.66C658.019 -1143.43 672.553 -1171.61 682.724 -1305.26C694.599 -1461.24 687.543 -1590.15 683.756 -1590.71" fill="#112599"/>
<path d="M1309 -1661.39C1301.42 -1667.76 1255.26 -1543.08 1223.1 -1383.65C1188.44 -1211.83 1201.77 -1157.07 1173.22 -987.615C1143.4 -810.642 1116.51 -797.172 1076.24 -622.436C1028.09 -413.433 1051.88 -369 1015.27 -113.241C965.833 232.304 912.593 219.747 854.553 601.687C826.545 786.032 811.68 968.451 804.676 1054.27C784.247 1304.88 792.669 1346.66 771.424 1501.75C733.062 1781.8 664.022 1949.13 668.901 1954.34C674.43 1960.28 773.747 1757.12 826.843 1445.15C869.168 1196.46 838.789 1133.24 876.72 827.94C918.632 490.575 999.007 242.887 1004.18 246.741C1008.27 249.796 964.577 410.519 928.618 684.63C900.584 898.333 910.109 930.525 868.406 1381.72C852.097 1558.14 849.891 1585.05 844.492 1667.3C834.196 1824.06 836.951 1866.73 814.838 1998.91C809.415 2031.33 771.75 2194.7 696.614 2520.11C639.597 2767.08 624.206 2831.55 610.717 2947.01C596.125 3071.91 604.124 3082.11 588.55 3337.9C573.87 3578.97 566.532 3699.52 546.987 3805.93C494.966 4089.23 395.039 4238.99 402.901 4251.69C410.411 4263.81 495.352 4117.19 568.406 3942.07C595.515 3877.09 608.806 3844.24 620.13 3801.49C656.768 3663.16 644.944 3571.09 651.532 3346.81C658.401 3113 661.833 2996.08 694.483 2886.48C727.997 2773.97 752.868 2778.46 802.547 2621.6C851.196 2468.01 861.779 2355.01 873.212 2359.29C885.749 2363.99 888.056 2505.61 870.442 2647.31C840.344 2889.58 762.759 3045.74 765.902 3049.93C768.55 3053.46 832.64 2954.54 876.739 2777.3C915.402 2621.93 920.59 2426.45 929.385 2041.8C933.799 1848.81 932.259 1761.22 954.324 1625.19C968.94 1535.1 980.339 1507.41 993.115 1398.9C1007.64 1275.57 1002.38 1230.96 1020.83 1121.16C1039.8 1008.2 1064.25 943.048 1062.39 941.141C1059.43 938.092 989.569 1095.52 948.781 1321.75C919.573 1483.76 933.778 1522.92 901.674 1830.95C884.728 1993.57 876.914 2075.11 860.111 2160.12C855.967 2181.51 851.33 2201.93 846.237 2221.23C834.863 2263.22 822.493 2302.49 809.23 2338.7C799.352 2366.77 787.47 2409.21 763.679 2494.09C722.189 2642.21 705.262 2724.26 703.271 2722.79C699.951 2720.32 716.4 2466.79 798.228 2238.96C798.228 2238.96 856.511 2052.38 871.37 1898.51C879.085 1818.6 873.956 1795.81 879.163 1690.15C884.717 1577.3 895.73 1487.25 919.401 1329.31C963.136 1037.49 978.088 994.236 1017.3 739.538C1051.81 515.426 1069.06 403.368 1075.32 298.225C1081.69 191.054 1087.32 -5.40552 1101.2 -152.302C1107.42 -216.792 1115.45 -279.45 1125.2 -339.548C1145.75 -468.583 1156.71 -459.961 1200.94 -692.755C1226.51 -827.316 1241.08 -901.731 1250.82 -987.642C1269.16 -1149.47 1249.28 -1157.85 1263.74 -1335.1C1280.13 -1535.88 1316.26 -1655.33 1309 -1661.45" fill="#112599"/>
</g>
</g>
<defs>
<linearGradient id="paint0_linear_316_5798" x1="756.5" y1="0" x2="756.5" y2="2874" gradientUnits="userSpaceOnUse">
<stop stop-color="#284698"/>
<stop offset="0.526" stop-color="#2D7EC0"/>
<stop offset="1" stop-color="#34CEF8"/>
</linearGradient>
<clipPath id="clip0_316_5798">
<rect width="1995" height="2874" fill="white" transform="translate(-241)"/>
</clipPath>
</defs>
</svg>
